<svg t="1563157468382" class="icon" viewBox="0 0 1024 1024" version="1.1" xmlns="http://www.w3.org/2000/svg" p-id="1994" width="200" height="200"><path d="M810.325333 356.590933a34.218667 34.218667 0 0 0 48.264534 0l0.955733-0.955733a34.218667 34.218667 0 0 0 0-48.264533L587.861333 35.6864a34.218667 34.218667 0 0 0-48.264533 0l-0.955733 0.955733a34.218667 34.218667 0 0 0 0 48.264534L810.325333 356.590933zM342.4768 824.439467a34.218667 34.218667 0 0 0 48.264533 0l0.955734-0.955734a34.218667 34.218667 0 0 0 0-48.264533L120.0128 503.517867a34.218667 34.218667 0 0 0-48.264533 0l-0.955734 0.955733a34.218667 34.218667 0 0 0 0 48.264533l271.684267 271.701334zM982.7328 873.7792L625.152 516.1984l87.0912-87.0912a68.4544 68.4544 0 0 0 0-96.546133l-149.572267-149.572267a68.4544 68.4544 0 0 0-96.546133 0L218.094933 431.0016a68.4544 68.4544 0 0 0 0 96.546133l149.572267 149.572267a68.4544 68.4544 0 0 0 96.546133 0l87.0912-87.0912 357.5808 357.5808a51.3536 51.3536 0 0 0 72.413867 0l1.4336-1.4336a51.370667 51.370667 0 0 0 0-72.3968zM757.282133 928.6656c-19.217067 0-34.798933-15.581867-34.798933-34.798933s-15.581867-34.798933-34.816-34.798934H130.7648c-19.217067 0-34.798933 15.581867-34.798933 34.798934s-15.581867 34.798933-34.816 34.798933a34.816 34.816 0 0 0 0 69.597867h696.132266a34.816 34.816 0 0 0 0-69.597867z" p-id="1995"></path></svg>
