<?xml version="1.0" standalone="no"?><!DOCTYPE svg PUBLIC "-//W3C//DTD SVG 1.1//EN" "http://www.w3.org/Graphics/SVG/1.1/DTD/svg11.dtd"><svg t="1562572544667" class="icon" viewBox="0 0 1117 1024" version="1.1" xmlns="http://www.w3.org/2000/svg" p-id="1172" xmlns:xlink="http://www.w3.org/1999/xlink" width="218.1640625" height="200"><defs><style type="text/css"></style></defs><path d="M1108.945455 470.109091C1099.636364 453.818182 915.781818 93.090909 559.709091 93.090909S19.781818 453.818182 10.472727 470.109091c-13.963636 25.6-13.963636 58.181818 0 83.781818 9.309091 16.290909 193.163636 377.018182 549.236364 377.018182s539.927273-360.727273 549.236364-377.018182c11.636364-25.6 11.636364-58.181818 0-83.781818zM559.709091 837.818182C257.163636 837.818182 94.254545 512 94.254545 512S257.163636 186.181818 559.709091 186.181818s465.454545 325.818182 465.454545 325.818182-162.909091 325.818182-465.454545 325.818182z"  p-id="1173"></path><path d="M559.709091 325.818182c-102.4 0-186.181818 83.781818-186.181818 186.181818s83.781818 186.181818 186.181818 186.181818 186.181818-83.781818 186.181818-186.181818-83.781818-186.181818-186.181818-186.181818z m0 279.272727c-51.2 0-93.090909-41.890909-93.090909-93.090909s41.890909-93.090909 93.090909-93.090909 93.090909 41.890909 93.090909 93.090909-41.890909 93.090909-93.090909 93.090909z" p-id="1174"></path></svg>
