<svg t="1563178115675" class="icon" viewBox="0 0 1024 1024" version="1.1" xmlns="http://www.w3.org/2000/svg" p-id="2721" width="200" height="200"><path d="M107.5 513zM975.4 209.4H181c-26.8 0-48.6 21.8-48.6 48.6v555.9c0 26.8 21.8 48.6 48.6 48.6h240.3l144.1 107.1c3.9 2.9 8.7 4.5 13.6 4.5 5.5 0 10.8-2 14.9-5.6l121.5-106h260c26.8 0 48.6-21.8 48.6-48.6V258c0-26.8-21.8-48.6-48.6-48.6zM828.2 642.2c0 16.6-13.4 30-30 30h-440c-16.6 0-30-13.4-30-30s13.4-30 30-30h440c16.5 0 30 13.4 30 30z m0-210c0 16.6-13.4 30-30 30h-440c-16.6 0-30-13.4-30-30s13.4-30 30-30h440c16.5 0 30 13.4 30 30zM82.4 559.8H50c-27.6 0-50-22.4-50-50v-410c0-27.6 22.4-50 50-50h724c27.6 0 50 22.4 50 50v59.6H122.4c-22.1 0-40 17.9-40 40v360.4z" p-id="2722"></path></svg>
