<svg t="1563248602556" class="icon" viewBox="0 0 1186 1024" version="1.1" xmlns="http://www.w3.org/2000/svg" p-id="2020" width="200" height="200"><path d="M429.445471 945.988166a352.946746 352.946746 0 0 1 6.816568-115.881657 175.715976 175.715976 0 0 1 61.349113-109.065089 163.597633 163.597633 0 0 1 75.739645-40.899408l61.349112-20.449704c-8.331361-12.87574-15.147929-19.692308-21.964497-34.082841s-6.816568-17.420118-13.633136-26.508875a25.751479 25.751479 0 0 0-12.87574-13.633136 137.846154 137.846154 0 0 1-27.266272-53.017752 190.106509 190.106509 0 0 1-6.816568-61.349112 128 128 0 0 1 13.633136-47.715977 6.816568 6.816568 0 0 1 6.816568-6.816568 136.331361 136.331361 0 0 1 6.816568-47.715976 243.881657 243.881657 0 0 1 13.633136-69.680473 151.47929 151.47929 0 0 1 40.899409-81.798817 445.349112 445.349112 0 0 1 54.532544-63.621302 308.260355 308.260355 0 0 1 61.349113-34.08284l61.349112-20.449704a252.213018 252.213018 0 0 1 122.698225 6.816568 408.994083 408.994083 0 0 0 47.715976 13.633136A266.60355 266.60355 0 0 0 749.82417 2.272189h-477.159764a273.420118 273.420118 0 0 0-272.662722 272.662722v476.402367a273.420118 273.420118 0 0 0 272.662722 272.662722h190.863906a141.633136 141.633136 0 0 1-34.082841-75.739645zM272.664406 218.130178h218.130178a54.532544 54.532544 0 0 1 0 109.065088H272.664406a53.775148 53.775148 0 0 1-54.532544-54.532544 49.230769 49.230769 0 0 1 54.532544-54.532544z m0 340.828402a54.532544 54.532544 0 1 1 0-109.065089h122.698225a54.532544 54.532544 0 0 1 0 109.065089H272.664406z m0 0" p-id="2021"></path><path d="M851.315294 197.680473a136.331361 136.331361 0 0 1 47.715976 6.816568c13.633136 6.816568 27.266272 6.816568 40.899408 13.633137a168.899408 168.899408 0 0 1 34.082841 20.449704 93.159763 93.159763 0 0 1 27.266272 20.449704 204.497041 204.497041 0 0 1 27.266272 54.532544 200.710059 200.710059 0 0 1 13.633136 61.349113c0 20.449704 6.816568 40.899408 6.816568 68.16568 6.816568 0 6.816568 6.816568 6.816568 13.633136s6.816568 6.816568 6.816568 13.633136v18.934912a32.568047 32.568047 0 0 1-6.816568 27.266272 14.390533 14.390533 0 0 1-13.633136 13.633136 13.633136 13.633136 0 0 1-13.633136 6.816568c0 6.816568-6.816568 20.449704-6.816568 27.266272s-6.816568 13.633136-6.816568 20.449704a14.390533 14.390533 0 0 1-13.633136 13.633136c-6.816568 5.301775-20.449704 9.846154-29.538462 18.934912a34.840237 34.840237 0 0 0-13.633136 27.266272v26.508875a50.745562 50.745562 0 0 0 6.816568 27.266273 269.633136 269.633136 0 0 0 20.449704 27.266272 140.118343 140.118343 0 0 0 34.082841 20.449704 95.431953 95.431953 0 0 0 40.899408 13.633136 407.47929 407.47929 0 0 0 47.715976 13.633136l40.899409 20.449704a65.893491 65.893491 0 0 1 27.266272 34.082841 280.994083 280.994083 0 0 1 6.816568 34.08284v75.739645a151.47929 151.47929 0 0 1-6.816568 27.266272c0 6.816568-6.816568 6.816568-20.449704 13.633136a408.236686 408.236686 0 0 1-47.715977 13.633136 190.106509 190.106509 0 0 1-61.349112 6.816568c-20.449704 0-47.715976 6.816568-68.165681 6.816568s-47.715976 6.816568-68.16568 6.816568h-106.035503a190.106509 190.106509 0 0 1-59.83432-9.088757c-20.449704 0-40.899408-6.816568-61.349112-6.816568s-42.414201-9.846154-62.106509-9.846154a249.183432 249.183432 0 0 1-40.899408 0 29.538462 29.538462 0 0 1-20.449704-6.816568 134.816568 134.816568 0 0 1-13.633136-40.899408 461.254438 461.254438 0 0 1 6.816568-88.615385 103.005917 103.005917 0 0 1 20.449704-47.715976 107.550296 107.550296 0 0 1 47.715976-27.266273 162.08284 162.08284 0 0 1 54.532544-15.905325 339.313609 339.313609 0 0 0 47.715977-20.449704 93.159763 93.159763 0 0 0 27.266272-20.449704c6.816568-6.816568 6.816568-13.633136 13.633136-20.449704s6.816568-13.633136 6.816568-20.449705v-20.449704a34.840237 34.840237 0 0 0-13.633136-27.266272 93.159763 93.159763 0 0 0-27.266272-21.964497l-13.633136-11.360947c0-6.816568-6.816568-13.633136-6.816568-20.449704a151.47929 151.47929 0 0 1-6.816568-27.266272 13.633136 13.633136 0 0 1-13.633136-6.816568l-12.87574-9.846154a24.994083 24.994083 0 0 1-7.573965-23.47929c0-6.816568-6.816568-20.449704-6.816568-27.266272a24.994083 24.994083 0 0 1 6.816568-19.692308 35.597633 35.597633 0 0 1 13.633137-20.449704v-60.591716a162.08284 162.08284 0 0 1 13.633136-54.532544 137.846154 137.846154 0 0 1 27.266272-54.532545 84.071006 84.071006 0 0 1 34.08284-34.08284 111.337278 111.337278 0 0 1 40.899408-20.449704c13.633136-6.816568 27.266272-6.816568 40.899409-13.633136-15.147929-6.059172 0-6.059172 11.360946-6.059172z m0 0" p-id="2022"></path></svg>
