<svg t="1562930580127" class="icon" viewBox="0 0 1024 1024" version="1.1" xmlns="http://www.w3.org/2000/svg" p-id="2640" width="200" height="200"><path d="M289.320635 89.577425c18.059965 13.003175 37.925926 30.340741 53.096296 52.735097 15.17037 22.394356 43.705115 51.2903 43.705115 51.2903h230.44515s24.200353-25.283951 39.009524-45.149912c14.809171-19.865961 27.089947-38.648325 54.902292-56.708289 23.116755-14.447972 35.036332-51.2903 5.41799-63.209877-25.64515-10.11358-36.119929 10.835979-66.099471 11.558378-29.257143 0.722399-33.230335-24.200353-62.487478-35.397531-29.257143-10.835979-44.788713-1.444797-62.126279 15.531569-17.337566 16.976367-23.839153 17.698765-23.839153 17.698766s-20.58836-12.280776-31.785538-24.922751c-11.197178-12.641975-40.81552-17.337566-59.959083-5.41799-24.561552 15.53157-29.979541 27.451146-50.206702 31.785538C336.637743 44.427513 299.795414 15.892769 279.568254 32.507937c-19.865961 16.615168-8.307584 43.705115 9.752381 57.069488z m471.00388 306.297002c-85.604233-72.239859-131.837743-141.228924-131.837743-141.228924h-251.033509s-48.039506 72.239859-124.974956 139.061728c-88.132628 77.296649-159.650088 200.826808-132.921341 348.918519 23.839153 131.837743 148.45291 281.37425 384.31605 281.37425 228.639153 0 362.644092-123.891358 388.289241-274.872663 31.063139-184.57284-58.875485-291.487831-131.837742-353.25291z m-134.366138 390.095238H534.574956s0.361199 20.949559 0.361199 31.785538c0 13.364374-12.641975 28.173545-29.979541 27.812346-17.698765-0.361199-30.70194-8.668783-32.146737-28.895944-0.722399-9.029982-0.361199-30.70194-0.3612-30.70194h-92.467019c-14.809171 0-25.283951-16.976367-24.922751-29.618342 0.361199-12.641975 11.558377-26.006349 24.922751-26.006349h92.467019l0.3612-63.571076s-75.129453 0.361199-89.216226 0.361199c-14.086772 0-23.839153-9.752381-24.561552-22.394356-0.361199-12.641975 11.197178-36.119929 24.561552-36.11993h89.216226v-22.755555s-71.156261-75.851852-79.463845-84.159436c-8.307584-8.307584-18.421164-27.089947-5.41799-42.260317 12.641975-14.447972 36.119929-3.973192 47.317108 6.862786 12.280776 11.919577 69.350265 71.156261 69.350264 71.156261s66.46067-62.126279 80.186244-73.684656c13.725573-11.197178 32.146737-12.280776 42.621517 0.722399 10.47478 12.641975 6.140388 24.561552-10.835979 40.093121S534.574956 586.948854 534.574956 586.948854v20.949559h85.604233c19.504762 0.361199 30.340741 22.755556 29.979541 34.313933-0.361199 13.725573-7.946384 24.561552-29.618342 24.561552l-85.604233 0.361199-0.361199 63.209877h84.159436c22.033157 0 31.063139 11.558377 31.424338 26.367548 1.083598 14.447972-9.752381 29.257143-24.200353 29.257143z m0 0"  p-id="2641"></path></svg>
